<svg width="296" height="91" viewBox="0 0 296 91" fill="none" xmlns="http://www.w3.org/2000/svg">
<path d="M15 74.2141L24.8792 17L43.0302 17.0393C50.1913 17.0655 55.536 18.4277 59.0643 21.126C62.5925 23.8243 64.1999 27.6098 63.8862 32.4824C63.4942 38.5077 60.2012 42.7778 54.0071 45.2927C56.2286 46.0786 57.9535 47.5063 59.1819 49.5759C60.4364 51.6192 60.9722 54.0818 60.7892 56.9634C60.4233 62.491 58.241 66.748 54.2423 69.7344C50.2697 72.7209 44.8205 74.2141 37.8946 74.2141H15ZM32.6414 49.8902L30.25 63.6043L38.2866 63.6436C40.7956 63.6436 42.8865 63.028 44.5591 61.7967C46.2318 60.5393 47.2249 58.8758 47.5386 56.8062C48.2704 52.4313 46.5977 50.1391 42.5206 49.9295L32.6414 49.8902ZM34.1703 40.8523L40.482 40.8916C46.3102 40.7606 49.5771 38.5208 50.2828 34.1721C50.91 29.8758 48.6885 27.7145 43.6183 27.6883L36.4833 27.6491L34.1703 40.8523Z" fill="#FDD60F"/>
<path d="M86.1536 75C82.364 74.9738 78.9794 74.0831 76 72.3279C73.0467 70.5465 70.8121 68.084 69.2963 64.9404C67.7804 61.7705 67.1793 58.2864 67.4929 54.4878L67.6105 53.3875C68.3162 46.393 70.7337 40.8654 74.8631 36.8049C79.0186 32.7182 84.102 30.7534 90.1131 30.9106C93.7459 30.963 96.856 31.893 99.4434 33.7005C102.031 35.4819 103.926 37.9575 105.128 41.1274C106.33 44.271 106.722 47.8076 106.304 51.7371L105.559 57.1206H80.3123C80.3646 59.3473 80.9919 61.1549 82.1941 62.5434C83.3963 63.9318 85.1474 64.6653 87.4473 64.7439C91.1847 64.8487 94.5431 63.4079 97.5225 60.4214L102.933 67.6125C101.338 69.8916 99.1037 71.6861 96.2288 72.9959C93.38 74.2796 90.2569 74.9476 86.8593 75H86.1536ZM89.2898 41.0881C87.4604 41.0357 85.8661 41.612 84.5071 42.8171C83.1742 44.0221 82.0111 46.0393 81.018 48.8686H93.9158L94.151 47.729C94.3078 46.8121 94.334 45.9476 94.2294 45.1355C93.7851 42.5158 92.1386 41.1667 89.2898 41.0881Z" fill="#FDD60F"/>
<path d="M132.06 21.126L130.218 31.6965H137L135.393 40.8916H128.611L125.317 60.4214C125.135 61.7575 125.213 62.766 125.553 63.4472C125.919 64.1283 126.807 64.495 128.219 64.5474C128.767 64.5736 129.891 64.5081 131.59 64.3509L130.649 73.939C128.48 74.6463 126.167 74.9738 123.71 74.9214C119.711 74.869 116.719 73.6902 114.733 71.3848C112.746 69.0795 111.936 65.949 112.302 61.9932L115.752 40.8916H110.499L112.067 31.6965H117.32L119.163 21.126H132.06Z" fill="#FDD60F"/>
<path d="M158 74.2141L167.879 17L186.03 17.0393C193.191 17.0655 198.536 18.4277 202.064 21.126C205.593 23.8243 207.2 27.6098 206.886 32.4824C206.494 38.5077 203.201 42.7778 197.007 45.2927C199.229 46.0786 200.954 47.5063 202.182 49.5759C203.436 51.6192 203.972 54.0818 203.789 56.9634C203.423 62.491 201.241 66.748 197.242 69.7344C193.27 72.7209 187.82 74.2141 180.895 74.2141H158ZM175.641 49.8902L173.25 63.6043L181.287 63.6436C183.796 63.6436 185.886 63.028 187.559 61.7967C189.232 60.5393 190.225 58.8758 190.539 56.8062C191.27 52.4313 189.598 50.1391 185.521 49.9295L175.641 49.8902ZM177.17 40.8523L183.482 40.8916C189.31 40.7606 192.577 38.5208 193.283 34.1721C193.91 29.8758 191.689 27.7145 186.618 27.6883L179.483 27.6491L177.17 40.8523Z" fill="white"/>
<path d="M229.154 75C225.364 74.9738 221.979 74.0831 219 72.3279C216.047 70.5465 213.812 68.084 212.296 64.9404C210.78 61.7705 210.179 58.2864 210.493 54.4878L210.611 53.3875C211.316 46.393 213.734 40.8654 217.863 36.8049C222.019 32.7182 227.102 30.7534 233.113 30.9106C236.746 30.963 239.856 31.893 242.443 33.7005C245.031 35.4819 246.926 37.9575 248.128 41.1274C249.33 44.271 249.722 47.8076 249.304 51.7371L248.559 57.1206H223.312C223.365 59.3473 223.992 61.1549 225.194 62.5434C226.396 63.9318 228.147 64.6653 230.447 64.7439C234.185 64.8487 237.543 63.4079 240.522 60.4214L245.933 67.6125C244.338 69.8916 242.104 71.6861 239.229 72.9959C236.38 74.2796 233.257 74.9476 229.859 75H229.154ZM232.29 41.0881C230.46 41.0357 228.866 41.612 227.507 42.8171C226.174 44.0221 225.011 46.0393 224.018 48.8686H236.916L237.151 47.729C237.308 46.8121 237.334 45.9476 237.229 45.1355C236.785 42.5158 235.139 41.1667 232.29 41.0881Z" fill="white"/>
<path d="M275.06 21.126L273.218 31.6965H280L278.393 40.8916H271.611L268.317 60.4214C268.135 61.7575 268.213 62.766 268.553 63.4472C268.919 64.1283 269.807 64.495 271.219 64.5474C271.767 64.5736 272.891 64.5081 274.59 64.3509L273.649 73.939C271.48 74.6463 269.167 74.9738 266.71 74.9214C262.711 74.869 259.719 73.6902 257.733 71.3848C255.746 69.0795 254.936 65.949 255.302 61.9932L258.752 40.8916H253.499L255.067 31.6965H260.32L262.163 21.126H275.06Z" fill="white"/>
<path d="M151.516 75H139L146 31.5H159L151.516 75Z" fill="white"/>
<path d="M159 31.5H146L151.5 75L159 31.5Z" fill="#FDD60F"/>
<path d="M147.003 21.2545C146.951 19.1899 147.607 17.4646 148.969 16.0788C150.357 14.6929 152.027 14 153.981 14C155.96 14 157.605 14.6222 158.915 15.8667C160.252 17.1111 160.946 18.7374 160.997 20.7455C161.049 22.8384 160.393 24.5778 159.031 25.9636C157.669 27.3212 155.998 28 154.019 28C152.092 28 150.447 27.3919 149.085 26.1758C147.748 24.9313 147.054 23.2909 147.003 21.2545Z" fill="#FFDA44"/>
<path fill-rule="evenodd" clip-rule="evenodd" d="M152.72 14.1026C151.299 14.3422 150.048 15.0009 148.969 16.0788C147.607 17.4646 146.951 19.1899 147.003 21.2545C147.054 23.2909 147.748 24.9313 149.085 26.1758C150.447 27.3919 152.092 28 154.019 28C154.17 28 154.319 27.9961 154.466 27.9882L152.72 14.1026Z" fill="white"/>
</svg>
